<?xml version="1.0" encoding="UTF-8"?>
<svg xmlns="http://www.w3.org/2000/svg" xmlns:xlink="http://www.w3.org/1999/xlink" width="1280" height="720" viewBox="0 0 1280 720">
<defs>
<g>
<g id="glyph-0-0">
<path d="M 4.953125 1.328125 C 4.671875 1.304688 4.390625 1.304688 4.109375 1.328125 C 4.140625 0.828125 4.15625 0.320312 4.15625 -0.1875 L 4.15625 -2.8125 L 9.265625 -2.8125 L 9.265625 1.3125 L 8.515625 1.3125 L 8.515625 0.421875 L 4.921875 0.421875 C 4.921875 0.722656 4.929688 1.023438 4.953125 1.328125 Z M 10.703125 -4.4375 C 10.679688 -4.238281 10.679688 -4.035156 10.703125 -3.828125 C 10.328125 -3.835938 9.953125 -3.84375 9.578125 -3.84375 L 4.171875 -3.84375 C 3.796875 -3.84375 3.414062 -3.835938 3.03125 -3.828125 C 3.050781 -4.035156 3.050781 -4.238281 3.03125 -4.4375 C 3.414062 -4.414062 3.796875 -4.40625 4.171875 -4.40625 L 5.046875 -4.40625 L 5.328125 -6.15625 L 3.859375 -6.140625 C 3.878906 -6.335938 3.878906 -6.539062 3.859375 -6.75 C 4.234375 -6.726562 4.609375 -6.71875 4.984375 -6.71875 L 5.40625 -6.71875 L 5.640625 -8.1875 L 4.546875 -8.1875 C 4.171875 -8.1875 3.796875 -8.171875 3.421875 -8.140625 C 3.441406 -8.347656 3.441406 -8.550781 3.421875 -8.75 C 3.796875 -8.738281 4.171875 -8.734375 4.546875 -8.734375 L 8.78125 -8.734375 C 9.164062 -8.734375 9.546875 -8.738281 9.921875 -8.75 C 9.898438 -8.550781 9.898438 -8.347656 9.921875 -8.140625 C 9.546875 -8.171875 9.164062 -8.1875 8.78125 -8.1875 L 6.40625 -8.1875 L 6.171875 -6.71875 L 9 -6.71875 L 9 -4.40625 L 9.578125 -4.40625 C 9.953125 -4.40625 10.328125 -4.414062 10.703125 -4.4375 Z M 8.515625 -2.25 L 4.90625 -2.25 L 4.90625 -0.125 L 8.515625 -0.125 Z M 8.25 -4.40625 L 8.25 -6.15625 L 6.09375 -6.15625 L 5.796875 -4.40625 Z M 0.046875 -4.53125 C 0.078125 -4.71875 0.078125 -4.90625 0.046875 -5.09375 C 0.378906 -5.082031 0.710938 -5.078125 1.046875 -5.078125 L 2.1875 -5.078125 L 2.1875 -0.875 L 2.859375 -1.75 L 3.140625 -2.171875 L 3.484375 -1.75 L 3.21875 -1.453125 L 1.875 0.4375 L 1.40625 0.046875 C 1.457031 -0.078125 1.484375 -0.207031 1.484375 -0.34375 L 1.484375 -4.5625 Z M 1.625 -6.4375 C 1.238281 -7.144531 0.8125 -7.820312 0.34375 -8.46875 L 0.953125 -8.96875 C 1.441406 -8.300781 1.890625 -7.59375 2.296875 -6.84375 Z "/>
</g>
<g id="glyph-0-1">
<path d="M 6.15625 -0.578125 L 5.421875 -0.578125 L 5.421875 -3.78125 L 8.34375 -3.78125 L 8.34375 -0.578125 L 7.59375 -0.578125 L 7.59375 -1.265625 L 6.15625 -1.265625 Z M 9.234375 -5.078125 C 9.210938 -4.878906 9.210938 -4.679688 9.234375 -4.484375 C 8.867188 -4.503906 8.503906 -4.515625 8.140625 -4.515625 L 5.96875 -4.515625 C 5.601562 -4.515625 5.238281 -4.503906 4.875 -4.484375 C 4.90625 -4.679688 4.90625 -4.878906 4.875 -5.078125 C 5.238281 -5.054688 5.601562 -5.046875 5.96875 -5.046875 L 6.5625 -5.046875 L 6.5625 -6.359375 L 5.9375 -6.359375 C 5.582031 -6.359375 5.222656 -6.347656 4.859375 -6.328125 C 4.878906 -6.523438 4.878906 -6.722656 4.859375 -6.921875 C 5.222656 -6.898438 5.582031 -6.890625 5.9375 -6.890625 L 6.5625 -6.890625 L 6.5625 -8.140625 L 4.625 -8.140625 L 4.625 -2.28125 C 4.632812 -1.40625 4.46875 -0.65625 4.125 -0.03125 C 3.78125 0.582031 3.3125 1.050781 2.71875 1.375 C 2.59375 1.09375 2.390625 0.894531 2.109375 0.78125 C 2.648438 0.582031 3.082031 0.226562 3.40625 -0.28125 C 3.726562 -0.789062 3.890625 -1.453125 3.890625 -2.265625 L 3.890625 -8.671875 L 10.140625 -8.671875 L 10.140625 -0.03125 C 10.140625 0.457031 9.992188 0.796875 9.703125 0.984375 C 9.398438 1.171875 8.914062 1.265625 8.25 1.265625 C 8.320312 0.921875 8.238281 0.617188 8 0.359375 C 8.21875 0.378906 8.46875 0.390625 8.75 0.390625 C 9.03125 0.398438 9.207031 0.367188 9.28125 0.296875 C 9.351562 0.234375 9.390625 0.0078125 9.390625 -0.375 L 9.390625 -8.140625 L 7.296875 -8.140625 L 7.296875 -6.890625 L 7.875 -6.890625 C 8.238281 -6.890625 8.601562 -6.898438 8.96875 -6.921875 C 8.9375 -6.722656 8.9375 -6.523438 8.96875 -6.328125 C 8.601562 -6.347656 8.238281 -6.359375 7.875 -6.359375 L 7.296875 -6.359375 L 7.296875 -5.046875 L 8.140625 -5.046875 C 8.503906 -5.046875 8.867188 -5.054688 9.234375 -5.078125 Z M 7.59375 -3.25 L 6.15625 -3.25 L 6.15625 -1.796875 L 7.59375 -1.796875 Z M 0.046875 -4.53125 C 0.078125 -4.71875 0.078125 -4.90625 0.046875 -5.09375 C 0.378906 -5.082031 0.707031 -5.078125 1.03125 -5.078125 L 2.140625 -5.078125 L 2.140625 -0.875 L 2.8125 -1.75 L 3.0625 -2.171875 L 3.40625 -1.75 L 3.140625 -1.453125 L 1.84375 0.4375 L 1.375 0.046875 C 1.425781 -0.078125 1.453125 -0.207031 1.453125 -0.34375 L 1.453125 -4.5625 Z M 1.59375 -6.4375 C 1.207031 -7.144531 0.789062 -7.820312 0.34375 -8.46875 L 0.9375 -8.96875 C 1.40625 -8.300781 1.84375 -7.59375 2.25 -6.84375 Z "/>
</g>
<g id="glyph-0-2">
<path d="M 6.71875 -7 L 6.71875 -7.578125 C 6.71875 -8.097656 6.707031 -8.613281 6.6875 -9.125 C 6.96875 -9.09375 7.25 -9.09375 7.53125 -9.125 C 7.507812 -8.613281 7.5 -8.097656 7.5 -7.578125 L 7.5 -7 L 10.28125 -7 L 10.375 -6.328125 C 10.289062 -6.347656 10.226562 -6.332031 10.1875 -6.28125 L 9.546875 -5.203125 L 8.890625 -5.578125 L 9.390625 -6.421875 L 7.5 -6.421875 L 7.5 -4.3125 L 9.390625 -4.3125 C 9.234375 -2.925781 8.691406 -1.71875 7.765625 -0.6875 C 8.054688 -0.414062 8.441406 -0.15625 8.921875 0.09375 C 9.398438 0.34375 9.957031 0.492188 10.59375 0.546875 C 10.382812 0.765625 10.265625 1.023438 10.234375 1.328125 C 9.078125 1.179688 8.085938 0.679688 7.265625 -0.171875 C 6.390625 0.617188 5.359375 1.132812 4.171875 1.375 C 4.023438 1.09375 3.847656 0.84375 3.640625 0.625 C 4.328125 0.550781 4.929688 0.378906 5.453125 0.109375 C 5.972656 -0.160156 6.410156 -0.453125 6.765625 -0.765625 C 6.117188 -1.617188 5.679688 -2.609375 5.453125 -3.734375 L 4.75 -3.734375 C 4.707031 -2.484375 4.503906 -1.40625 4.140625 -0.5 C 3.898438 0.101562 3.578125 0.664062 3.171875 1.1875 C 2.929688 0.96875 2.648438 0.875 2.328125 0.90625 C 2.796875 0.40625 3.164062 -0.160156 3.4375 -0.796875 C 3.8125 -1.691406 4 -2.859375 4 -4.296875 L 4 -7 Z M 6.15625 -3.734375 C 6.382812 -2.785156 6.75 -1.960938 7.25 -1.265625 C 7.882812 -1.972656 8.300781 -2.796875 8.5 -3.734375 Z M 6.71875 -4.3125 L 6.71875 -6.421875 L 4.765625 -6.421875 L 4.765625 -4.3125 Z M 1.5 1.28125 C 1.21875 1.101562 0.878906 1.007812 0.484375 1 C 0.765625 0.414062 1.054688 -0.25 1.359375 -1 C 1.671875 -1.757812 2.125 -3.066406 2.71875 -4.921875 L 3.140625 -4.703125 L 1.984375 -0.578125 Z M 2.296875 -4.953125 L 1.65625 -4.421875 L 0.15625 -5.90625 L 0.796875 -6.4375 Z M 2.46875 -6.796875 C 2.007812 -7.335938 1.507812 -7.847656 0.96875 -8.328125 L 1.578125 -8.890625 C 2.140625 -8.390625 2.664062 -7.847656 3.15625 -7.265625 Z "/>
</g>
<g id="glyph-0-3">
<path d="M 9.953125 -2.78125 C 10.179688 -2.570312 10.429688 -2.382812 10.703125 -2.21875 C 9.941406 -1.300781 9.050781 -0.5 8.03125 0.1875 C 6.957031 0.945312 5.671875 1.46875 4.171875 1.75 C 4.160156 1.425781 4.054688 1.132812 3.859375 0.875 C 4.878906 0.75 5.84375 0.472656 6.75 0.046875 C 7.332031 -0.222656 7.832031 -0.539062 8.25 -0.90625 C 8.863281 -1.476562 9.429688 -2.101562 9.953125 -2.78125 Z M 9.484375 -5.84375 C 9.679688 -5.632812 9.898438 -5.457031 10.140625 -5.3125 C 9.148438 -4.050781 7.804688 -2.914062 6.109375 -1.90625 C 6.003906 -2.164062 5.84375 -2.367188 5.625 -2.515625 C 6.351562 -2.929688 7.003906 -3.390625 7.578125 -3.890625 C 8.160156 -4.398438 8.796875 -5.050781 9.484375 -5.84375 Z M 9.3125 -8.75 C 9.5 -8.53125 9.710938 -8.34375 9.953125 -8.1875 C 9.347656 -7.46875 8.578125 -6.742188 7.640625 -6.015625 L 6.703125 -5.3125 C 6.578125 -5.5625 6.394531 -5.75 6.15625 -5.875 C 6.914062 -6.394531 7.65625 -7.019531 8.375 -7.75 Z M 5.546875 0.109375 C 5.265625 0.078125 4.976562 0.078125 4.6875 0.109375 C 4.71875 -0.421875 4.734375 -0.945312 4.734375 -1.46875 L 4.734375 -4.328125 L 3.203125 -4.328125 L 3.203125 -3.046875 C 3.203125 -2.066406 3.019531 -1.195312 2.65625 -0.4375 C 2.289062 0.3125 1.753906 0.910156 1.046875 1.359375 C 0.898438 1.078125 0.671875 0.890625 0.359375 0.796875 C 1.003906 0.492188 1.507812 0.0195312 1.875 -0.625 C 2.238281 -1.269531 2.421875 -2.078125 2.421875 -3.046875 L 2.421875 -4.328125 L 1.796875 -4.328125 C 1.390625 -4.328125 0.984375 -4.316406 0.578125 -4.296875 C 0.609375 -4.515625 0.609375 -4.734375 0.578125 -4.953125 C 0.984375 -4.929688 1.390625 -4.921875 1.796875 -4.921875 L 2.421875 -4.921875 L 2.421875 -7.765625 L 0.96875 -7.734375 C 0.988281 -7.953125 0.988281 -8.171875 0.96875 -8.390625 C 1.375 -8.367188 1.78125 -8.359375 2.1875 -8.359375 L 5.796875 -8.359375 C 6.203125 -8.359375 6.609375 -8.367188 7.015625 -8.390625 C 6.984375 -8.171875 6.984375 -7.953125 7.015625 -7.734375 L 5.5 -7.765625 L 5.5 -4.921875 L 5.984375 -4.921875 C 6.378906 -4.921875 6.78125 -4.929688 7.1875 -4.953125 C 7.164062 -4.734375 7.164062 -4.515625 7.1875 -4.296875 C 6.78125 -4.316406 6.378906 -4.328125 5.984375 -4.328125 L 5.5 -4.328125 L 5.5 -1.46875 C 5.5 -0.945312 5.515625 -0.421875 5.546875 0.109375 Z M 4.734375 -4.921875 L 4.734375 -7.765625 L 3.203125 -7.765625 L 3.203125 -4.921875 Z "/>
</g>
<g id="glyph-0-4">
<path d="M 7.734375 -0.1875 L 7.734375 -7.75 L 1.515625 -7.75 C 1.078125 -7.75 0.632812 -7.738281 0.1875 -7.71875 C 0.21875 -7.957031 0.21875 -8.195312 0.1875 -8.4375 C 0.632812 -8.414062 1.078125 -8.40625 1.515625 -8.40625 L 9.328125 -8.40625 C 9.765625 -8.40625 10.207031 -8.414062 10.65625 -8.4375 C 10.625 -8.195312 10.625 -7.957031 10.65625 -7.71875 C 10.207031 -7.738281 9.765625 -7.75 9.328125 -7.75 L 8.53125 -7.75 L 8.53125 0.109375 C 8.53125 0.617188 8.367188 0.96875 8.046875 1.15625 C 7.710938 1.363281 7.1875 1.460938 6.46875 1.453125 C 6.550781 1.085938 6.460938 0.765625 6.203125 0.484375 C 6.441406 0.503906 6.710938 0.515625 7.015625 0.515625 C 7.328125 0.523438 7.523438 0.5 7.609375 0.4375 C 7.691406 0.375 7.734375 0.164062 7.734375 -0.1875 Z M 2.59375 -1.515625 L 1.796875 -1.515625 L 1.796875 -6.21875 L 5.65625 -6.21875 L 5.65625 -1.515625 L 4.859375 -1.515625 L 4.859375 -2.21875 L 2.59375 -2.21875 Z M 4.859375 -5.5625 L 2.59375 -5.5625 L 2.59375 -2.859375 L 4.859375 -2.859375 Z "/>
</g>
<g id="glyph-0-5">
<path d="M 8.46875 1.171875 C 8.132812 1.171875 7.863281 1.066406 7.65625 0.859375 C 7.445312 0.648438 7.34375 0.375 7.34375 0.03125 L 7.34375 -2.609375 C 7.113281 -1.742188 6.707031 -0.96875 6.125 -0.28125 C 5.550781 0.40625 4.851562 0.9375 4.03125 1.3125 C 3.894531 1 3.660156 0.796875 3.328125 0.703125 C 4.335938 0.378906 5.164062 -0.226562 5.8125 -1.125 C 6.46875 -2.019531 6.796875 -3.078125 6.796875 -4.296875 L 6.796875 -5.875 C 6.796875 -6.382812 6.785156 -6.898438 6.765625 -7.421875 C 7.046875 -7.390625 7.328125 -7.390625 7.609375 -7.421875 C 7.578125 -6.898438 7.5625 -6.382812 7.5625 -5.875 L 7.5625 -4.296875 C 7.5625 -4.128906 7.554688 -3.957031 7.546875 -3.78125 C 7.734375 -3.78125 7.929688 -3.789062 8.140625 -3.8125 C 8.117188 -3.289062 8.109375 -2.769531 8.109375 -2.25 L 8.109375 0.03125 C 8.109375 0.164062 8.144531 0.273438 8.21875 0.359375 C 8.289062 0.453125 8.378906 0.5 8.484375 0.5 L 9.6875 0.5 C 9.78125 0.5 9.84375 0.457031 9.875 0.375 C 9.90625 0.300781 9.914062 0.207031 9.90625 0.09375 C 9.894531 -0.0078125 9.898438 -0.117188 9.921875 -0.234375 L 10.125 -1.921875 C 10.34375 -1.765625 10.585938 -1.6875 10.859375 -1.6875 L 10.5625 0.34375 C 10.5625 0.570312 10.546875 0.75 10.515625 0.875 C 10.503906 1.070312 10.421875 1.171875 10.265625 1.171875 Z M 5.765625 -2.734375 C 5.484375 -2.765625 5.207031 -2.765625 4.9375 -2.734375 C 4.957031 -3.242188 4.96875 -3.757812 4.96875 -4.28125 L 4.96875 -8.71875 L 9.453125 -8.71875 L 9.453125 -2.9375 L 8.703125 -2.9375 L 8.703125 -8.140625 L 5.734375 -8.140625 L 5.734375 -4.28125 C 5.734375 -3.757812 5.742188 -3.242188 5.765625 -2.734375 Z M 3.0625 -0.21875 C 3.0625 0.289062 3.078125 0.804688 3.109375 1.328125 C 2.828125 1.296875 2.539062 1.296875 2.25 1.328125 C 2.28125 0.804688 2.296875 0.289062 2.296875 -0.21875 L 2.296875 -3.71875 C 1.878906 -3.21875 1.429688 -2.742188 0.953125 -2.296875 C 0.691406 -2.460938 0.414062 -2.578125 0.125 -2.640625 C 1.4375 -3.753906 2.519531 -5.0625 3.375 -6.5625 L 1.71875 -6.5625 C 1.332031 -6.5625 0.945312 -6.554688 0.5625 -6.546875 C 0.582031 -6.753906 0.582031 -6.960938 0.5625 -7.171875 C 0.945312 -7.148438 1.332031 -7.140625 1.71875 -7.140625 L 4.59375 -7.140625 C 4.144531 -6.285156 3.632812 -5.46875 3.0625 -4.6875 L 3.0625 -4.171875 L 3.40625 -4.453125 L 4.671875 -2.96875 L 4.03125 -2.4375 L 3.0625 -3.578125 Z M 3.171875 -8 L 2.59375 -7.40625 L 1.328125 -8.640625 L 1.90625 -9.234375 Z "/>
</g>
<g id="glyph-0-6">
<path d="M 6.703125 -0.140625 C 6.703125 0.0234375 6.734375 0.164062 6.796875 0.28125 C 6.867188 0.40625 6.96875 0.46875 7.09375 0.46875 L 9.546875 0.46875 C 9.691406 0.457031 9.78125 0.378906 9.8125 0.234375 C 9.863281 0.109375 9.898438 -0.03125 9.921875 -0.1875 L 10.140625 -1.765625 C 10.367188 -1.597656 10.628906 -1.515625 10.921875 -1.515625 L 10.5625 0.71875 C 10.53125 0.894531 10.457031 1.039062 10.34375 1.15625 C 10.289062 1.195312 10.226562 1.21875 10.15625 1.21875 L 7.078125 1.21875 C 6.785156 1.21875 6.515625 1.101562 6.265625 0.875 C 6.015625 0.65625 5.890625 0.316406 5.890625 -0.140625 L 5.890625 -2.53125 C 5.171875 -2.050781 4.457031 -1.65625 3.75 -1.34375 C 3.65625 -1.664062 3.472656 -1.929688 3.203125 -2.140625 C 4.203125 -2.546875 5.097656 -3.007812 5.890625 -3.53125 L 5.890625 -7.1875 C 5.890625 -7.726562 5.878906 -8.269531 5.859375 -8.8125 C 6.148438 -8.789062 6.445312 -8.789062 6.75 -8.8125 C 6.71875 -8.269531 6.703125 -7.726562 6.703125 -7.1875 L 6.703125 -4.09375 C 7.296875 -4.550781 7.878906 -5.109375 8.453125 -5.765625 C 8.847656 -6.210938 9.160156 -6.578125 9.390625 -6.859375 C 9.617188 -6.628906 9.867188 -6.425781 10.140625 -6.25 C 9.023438 -5.007812 7.878906 -3.953125 6.703125 -3.078125 Z M 3.1875 1.328125 C 2.894531 1.304688 2.597656 1.304688 2.296875 1.328125 C 2.316406 0.785156 2.328125 0.242188 2.328125 -0.296875 L 2.328125 -4.921875 C 1.867188 -4.390625 1.363281 -3.929688 0.8125 -3.546875 C 0.65625 -3.847656 0.425781 -4.070312 0.125 -4.21875 C 0.6875 -4.59375 1.21875 -5.023438 1.71875 -5.515625 C 2.21875 -6.003906 2.601562 -6.523438 2.875 -7.078125 C 3.144531 -7.671875 3.382812 -8.289062 3.59375 -8.9375 C 3.894531 -8.8125 4.207031 -8.71875 4.53125 -8.65625 C 4.144531 -7.664062 3.679688 -6.773438 3.140625 -5.984375 L 3.140625 -0.296875 C 3.140625 0.242188 3.15625 0.785156 3.1875 1.328125 Z "/>
</g>
</g>
</defs>
<g fill="rgb(100%, 100%, 100%)" fill-opacity="1">
<use xlink:href="#glyph-0-0" x="30" y="30.698242"/>
<use xlink:href="#glyph-0-1" x="41" y="30.698242"/>
<use xlink:href="#glyph-0-2" x="52" y="30.698242"/>
<use xlink:href="#glyph-0-3" x="63" y="30.698242"/>
<use xlink:href="#glyph-0-4" x="74" y="30.698242"/>
<use xlink:href="#glyph-0-5" x="85" y="30.698242"/>
<use xlink:href="#glyph-0-6" x="96" y="30.698242"/>
</g>
</svg>
