<?xml version="1.0" encoding="UTF-8"?>
<svg xmlns="http://www.w3.org/2000/svg" xmlns:xlink="http://www.w3.org/1999/xlink" width="1280" height="720" viewBox="0 0 1280 720">
<defs>
<g>
<g id="glyph-0-0">
<path d="M 4.0625 0.359375 L 3.71875 0.625 L 3.125 -0.140625 L 3.453125 -0.40625 Z M 2.484375 -2.09375 L 2.484375 -0.03125 L 3.375 -0.84375 L 3.546875 -0.59375 C 3.421875 -0.5 3.222656 -0.3125 2.953125 -0.03125 C 2.679688 0.25 2.453125 0.5 2.265625 0.71875 L 2.015625 0.421875 C 2.066406 0.285156 2.09375 0.148438 2.09375 0.015625 L 2.09375 -3.078125 C 2.09375 -3.347656 2.085938 -3.613281 2.078125 -3.875 C 2.210938 -3.851562 2.351562 -3.851562 2.5 -3.875 C 2.5 -3.84375 2.5 -3.8125 2.5 -3.78125 C 2.726562 -3.769531 3.046875 -3.796875 3.453125 -3.859375 L 3.453125 -3.890625 C 3.484375 -3.878906 3.515625 -3.875 3.546875 -3.875 C 3.890625 -3.9375 4.128906 -4 4.265625 -4.0625 C 4.410156 -4.125 4.53125 -4.210938 4.625 -4.328125 C 4.695312 -4.210938 4.785156 -4.101562 4.890625 -4 C 4.773438 -3.894531 4.648438 -3.816406 4.515625 -3.765625 C 4.378906 -3.710938 4.164062 -3.664062 3.875 -3.625 L 3.859375 -2.96875 C 3.859375 -2.675781 3.863281 -2.484375 3.875 -2.390625 L 4.609375 -2.390625 C 4.804688 -2.390625 5.007812 -2.394531 5.21875 -2.40625 C 5.207031 -2.289062 5.207031 -2.179688 5.21875 -2.078125 C 5.007812 -2.085938 4.804688 -2.09375 4.609375 -2.09375 L 3.890625 -2.09375 C 4.003906 -1.175781 4.351562 -0.453125 4.9375 0.078125 C 4.9375 -0.191406 4.929688 -0.457031 4.921875 -0.71875 C 5.046875 -0.632812 5.1875 -0.597656 5.34375 -0.609375 C 5.375 -0.242188 5.367188 0.113281 5.328125 0.46875 C 5.316406 0.570312 5.257812 0.640625 5.15625 0.671875 C 5.101562 0.679688 5.050781 0.671875 5 0.640625 C 4.132812 0.00390625 3.640625 -0.90625 3.515625 -2.09375 Z M 2.484375 -3.453125 L 2.484375 -2.390625 L 3.484375 -2.390625 L 3.453125 -3.5625 Z M 1.90625 -4.28125 C 1.75 -3.789062 1.550781 -3.332031 1.3125 -2.90625 L 1.3125 -0.03125 C 1.3125 0.226562 1.320312 0.484375 1.34375 0.734375 C 1.207031 0.722656 1.066406 0.722656 0.921875 0.734375 C 0.929688 0.484375 0.9375 0.226562 0.9375 -0.03125 L 0.9375 -2.328125 C 0.757812 -2.085938 0.5625 -1.867188 0.34375 -1.671875 C 0.257812 -1.804688 0.144531 -1.90625 0 -1.96875 C 0.195312 -2.125 0.378906 -2.300781 0.546875 -2.5 C 0.835938 -2.820312 1.046875 -3.132812 1.171875 -3.4375 C 1.296875 -3.738281 1.394531 -4.054688 1.46875 -4.390625 C 1.601562 -4.335938 1.75 -4.300781 1.90625 -4.28125 Z "/>
</g>
<g id="glyph-1-0">
</g>
<g id="glyph-1-1">
<path d="M 0.75 -3.0625 L 1.0625 -3.375 L 3.53125 -0.90625 L 3.8125 -1.921875 L 3.828125 -1.90625 L 3.84375 -0.3125 L 3.828125 -0.28125 L 2.234375 -0.296875 L 2.203125 -0.3125 L 3.21875 -0.59375 Z "/>
</g>
</g>
</defs>
<g fill="rgb(90.588235%, 29.803922%, 23.529412%)" fill-opacity="1">
<use xlink:href="#glyph-0-0" x="30" y="25.349609"/>
</g>
<g fill="rgb(90.588235%, 29.803922%, 23.529412%)" fill-opacity="1">
<use xlink:href="#glyph-1-0" x="36" y="25.635742"/>
<use xlink:href="#glyph-1-1" x="38" y="25.635742"/>
</g>
</svg>
